<?xml version="1.0" standalone="no"?>
<!DOCTYPE svg PUBLIC "-//W3C//DTD SVG 20010904//EN"
 "http://www.w3.org/TR/2001/REC-SVG-20010904/DTD/svg10.dtd">
<svg version="1.0" xmlns="http://www.w3.org/2000/svg"
 width="208.000000pt" height="208.000000pt" viewBox="0 0 208.000000 208.000000"
 preserveAspectRatio="xMidYMid meet">
<metadata>
Created by potrace 1.11, written by Peter Selinger 2001-2013
</metadata>
<g transform="translate(0.000000,208.000000) scale(0.100000,-0.100000)"
fill="#000000" stroke="none">
<path d="M710 2016 c-303 -91 -554 -346 -654 -665 -77 -244 -50 -541 72 -775
114 -222 254 -331 380 -296 41 10 43 10 95 -33 172 -140 393 -217 587 -204
183 12 308 93 346 224 16 55 16 71 0 293 -10 129 -20 390 -23 579 l-6 344 30
-21 c45 -32 99 -118 127 -203 38 -114 55 -233 66 -454 11 -220 23 -298 51
-344 25 -41 49 -39 92 8 108 119 187 359 187 567 0 217 -58 407 -185 599 -50
76 -159 186 -207 208 -67 31 -136 17 -194 -41 l-31 -31 -59 60 c-96 98 -168
124 -266 95 -136 -39 -329 -231 -513 -510 -22 -32 -41 -53 -43 -47 -6 18 87
200 179 351 105 174 153 273 144 299 -9 29 -76 27 -175 -3z m961 -225 c56 -63
119 -196 178 -376 50 -153 95 -340 89 -371 -2 -10 -40 40 -98 130 -52 80 -146
224 -208 319 -110 169 -112 173 -106 217 7 55 29 111 50 126 24 18 51 5 95
-45z m-1161 -161 c0 -16 -25 -98 -56 -182 -56 -154 -114 -359 -114 -404 0 -30
-65 -104 -91 -104 -31 0 -41 44 -46 195 -6 149 14 308 42 352 28 42 218 173
253 173 7 0 12 -13 12 -30z m720 -260 c-6 -12 -59 -164 -116 -338 -175 -527
-248 -642 -377 -593 l-25 10 155 308 c180 356 255 493 320 581 45 60 67 77 43
32z"/>
</g>
</svg>
